<mxfile host="app.diagrams.net" modified="2021-05-24T06:20:20.718Z" agent="5.0 (Macintosh; Intel Mac OS X 10_15_7) AppleWebKit/537.36 (KHTML, like Gecko) Chrome/90.0.4430.93 Safari/537.36" etag="IhG6CWMWq1nEyikab_ts" version="14.6.11" type="github">
  <diagram id="CLktbs6xwie9vSDFRwdq" name="Page-1">
    <mxGraphModel dx="946" dy="742" grid="1" gridSize="10" guides="1" tooltips="1" connect="1" arrows="1" fold="1" page="1" pageScale="1" pageWidth="827" pageHeight="1169" math="0" shadow="0">
      <root>
        <mxCell id="0" />
        <mxCell id="1" parent="0" />
        <mxCell id="h5Q3BCVjslvK7VpwUPa6-12" style="edgeStyle=orthogonalEdgeStyle;rounded=0;orthogonalLoop=1;jettySize=auto;html=1;" edge="1" parent="1" source="h5Q3BCVjslvK7VpwUPa6-3" target="h5Q3BCVjslvK7VpwUPa6-10">
          <mxGeometry relative="1" as="geometry" />
        </mxCell>
        <mxCell id="h5Q3BCVjslvK7VpwUPa6-18" value="search" style="edgeLabel;html=1;align=center;verticalAlign=middle;resizable=0;points=[];" vertex="1" connectable="0" parent="h5Q3BCVjslvK7VpwUPa6-12">
          <mxGeometry x="-0.0923" y="3" relative="1" as="geometry">
            <mxPoint as="offset" />
          </mxGeometry>
        </mxCell>
        <mxCell id="h5Q3BCVjslvK7VpwUPa6-15" style="edgeStyle=orthogonalEdgeStyle;rounded=0;orthogonalLoop=1;jettySize=auto;html=1;entryX=0.5;entryY=0;entryDx=0;entryDy=0;" edge="1" parent="1" source="h5Q3BCVjslvK7VpwUPa6-3" target="h5Q3BCVjslvK7VpwUPa6-14">
          <mxGeometry relative="1" as="geometry" />
        </mxCell>
        <mxCell id="h5Q3BCVjslvK7VpwUPa6-21" value="complete" style="edgeLabel;html=1;align=center;verticalAlign=middle;resizable=0;points=[];" vertex="1" connectable="0" parent="h5Q3BCVjslvK7VpwUPa6-15">
          <mxGeometry x="-0.48" y="2" relative="1" as="geometry">
            <mxPoint x="-2" y="7" as="offset" />
          </mxGeometry>
        </mxCell>
        <mxCell id="h5Q3BCVjslvK7VpwUPa6-3" value="form" style="rounded=0;whiteSpace=wrap;html=1;" vertex="1" parent="1">
          <mxGeometry x="230" y="140" width="80" height="30" as="geometry" />
        </mxCell>
        <mxCell id="h5Q3BCVjslvK7VpwUPa6-4" value="DB" style="shape=datastore;whiteSpace=wrap;html=1;" vertex="1" parent="1">
          <mxGeometry x="240" y="300" width="60" height="60" as="geometry" />
        </mxCell>
        <mxCell id="h5Q3BCVjslvK7VpwUPa6-5" value="read list" style="edgeStyle=orthogonalEdgeStyle;rounded=0;orthogonalLoop=1;jettySize=auto;html=1;entryX=0;entryY=0.5;entryDx=0;entryDy=0;" edge="1" parent="1" source="h5Q3BCVjslvK7VpwUPa6-6" target="h5Q3BCVjslvK7VpwUPa6-3">
          <mxGeometry relative="1" as="geometry" />
        </mxCell>
        <mxCell id="h5Q3BCVjslvK7VpwUPa6-6" value="Actor" style="shape=umlActor;verticalLabelPosition=bottom;verticalAlign=top;html=1;outlineConnect=0;" vertex="1" parent="1">
          <mxGeometry x="80" y="125" width="30" height="60" as="geometry" />
        </mxCell>
        <mxCell id="h5Q3BCVjslvK7VpwUPa6-10" value="search" style="html=1;verticalLabelPosition=bottom;align=center;labelBackgroundColor=#ffffff;verticalAlign=top;strokeWidth=2;strokeColor=#0080F0;shadow=0;dashed=0;shape=mxgraph.ios7.icons.looking_glass;" vertex="1" parent="1">
          <mxGeometry x="440" y="140" width="30" height="30" as="geometry" />
        </mxCell>
        <mxCell id="h5Q3BCVjslvK7VpwUPa6-17" style="edgeStyle=orthogonalEdgeStyle;rounded=0;orthogonalLoop=1;jettySize=auto;html=1;" edge="1" parent="1" source="h5Q3BCVjslvK7VpwUPa6-14" target="h5Q3BCVjslvK7VpwUPa6-4">
          <mxGeometry relative="1" as="geometry" />
        </mxCell>
        <mxCell id="h5Q3BCVjslvK7VpwUPa6-14" value="bpms" style="rounded=0;whiteSpace=wrap;html=1;" vertex="1" parent="1">
          <mxGeometry x="230" y="220" width="80" height="30" as="geometry" />
        </mxCell>
      </root>
    </mxGraphModel>
  </diagram>
</mxfile>
